<svg width="109" height="29" viewBox="0 0 109 29" fill="none" xmlns="http://www.w3.org/2000/svg">
<path d="M33.9142 4.11991H36.5025C36.5127 4.18135 36.5204 4.24279 36.5255 4.30423C36.5306 4.36056 36.5332 4.41944 36.5332 4.48088C36.5332 4.80857 36.482 5.13114 36.3796 5.44859C36.2772 5.76092 36.1108 6.04253 35.8804 6.29342C35.6346 6.55455 35.3428 6.75935 35.0048 6.90784C34.672 7.0512 34.2931 7.12288 33.8681 7.12288C33.4739 7.12288 33.1052 7.0512 32.7622 6.90784C32.4191 6.75935 32.1196 6.55711 31.8636 6.3011C31.6076 6.03997 31.4054 5.73532 31.2569 5.38715C31.1084 5.03898 31.0341 4.66009 31.0341 4.25047C31.0341 3.84598 31.1084 3.46965 31.2569 3.12148C31.4054 2.76819 31.6076 2.46354 31.8636 2.20753C32.1196 1.9464 32.4191 1.74415 32.7622 1.60079C33.1052 1.4523 33.4739 1.37806 33.8681 1.37806C34.2726 1.37806 34.649 1.44974 34.9971 1.59311C35.3453 1.73135 35.6346 1.93104 35.865 2.19217L35.504 2.55314C35.3146 2.32273 35.0791 2.14865 34.7975 2.03088C34.5158 1.908 34.2086 1.84656 33.8758 1.84656C33.5686 1.84656 33.2716 1.90544 32.9849 2.0232C32.7033 2.13585 32.455 2.29713 32.2399 2.50706C32.0249 2.71698 31.8534 2.97043 31.7254 3.2674C31.5974 3.55925 31.5334 3.88694 31.5334 4.25047C31.5334 4.614 31.5974 4.94425 31.7254 5.24122C31.8585 5.53307 32.0326 5.78396 32.2476 5.99389C32.4627 6.20381 32.711 6.36766 32.9926 6.48542C33.2742 6.59807 33.5686 6.65439 33.8758 6.65439C34.2752 6.65439 34.6106 6.58783 34.8819 6.4547C35.1584 6.32158 35.3812 6.15773 35.5501 5.96317C35.7191 5.7686 35.8394 5.55867 35.9111 5.33339C35.9879 5.1081 36.0314 4.85721 36.0417 4.58072H33.9142V4.11991ZM37.9375 1.96944V4.02007H40.3031V4.48088H37.9375V6.53151H40.5488V7H37.446V1.50095H40.5488V1.96944H37.9375ZM42.7385 7V1.96944H41.1794V1.50095H44.7892V1.96944H43.2301V7H42.7385ZM47.3838 1.50095H47.8754V7H47.3838V1.50095ZM50.2238 7V1.96944H48.6647V1.50095H52.2744V1.96944H50.7153V7H50.2238ZM57.2382 7.12288C56.8337 7.12288 56.4599 7.04864 56.1169 6.90016C55.7738 6.74655 55.4768 6.53919 55.2259 6.27806C54.9802 6.01693 54.7856 5.71228 54.6422 5.36411C54.504 5.01594 54.4349 4.64473 54.4349 4.25047C54.4349 3.85622 54.504 3.48501 54.6422 3.13684C54.7856 2.78867 54.9802 2.48402 55.2259 2.22289C55.4768 1.96176 55.7738 1.75695 56.1169 1.60847C56.4599 1.45486 56.8337 1.37806 57.2382 1.37806C57.6375 1.37806 58.0088 1.45486 58.3518 1.60847C58.6949 1.75695 58.9918 1.96176 59.2427 2.22289C59.4936 2.48402 59.6882 2.78867 59.8264 3.13684C59.9698 3.48501 60.0415 3.85622 60.0415 4.25047C60.0415 4.64473 59.9698 5.01594 59.8264 5.36411C59.6882 5.71228 59.4936 6.01693 59.2427 6.27806C58.9918 6.53919 58.6949 6.74655 58.3518 6.90016C58.0088 7.04864 57.6375 7.12288 57.2382 7.12288ZM57.2382 6.65439C57.5505 6.65439 57.8475 6.59551 58.1291 6.47774C58.4107 6.35998 58.6539 6.19613 58.8587 5.98621C59.0686 5.77116 59.235 5.51771 59.3579 5.22586C59.4808 4.92889 59.5422 4.60376 59.5422 4.25047C59.5422 3.89718 59.4808 3.57461 59.3579 3.28276C59.235 2.98579 59.0686 2.73234 58.8587 2.52242C58.6539 2.30737 58.4107 2.14097 58.1291 2.0232C57.8475 1.90544 57.5505 1.84656 57.2382 1.84656C56.9207 1.84656 56.6212 1.90544 56.3396 2.0232C56.0631 2.14097 55.8199 2.30737 55.61 2.52242C55.4 2.73234 55.2336 2.98579 55.1107 3.28276C54.993 3.57461 54.9341 3.89718 54.9341 4.25047C54.9341 4.60376 54.993 4.92889 55.1107 5.22586C55.2336 5.51771 55.4 5.77116 55.61 5.98621C55.8199 6.19613 56.0631 6.35998 56.3396 6.47774C56.6212 6.59551 56.9207 6.65439 57.2382 6.65439ZM60.9292 1.50095H61.5667L64.5543 6.13981H64.585L64.5543 5.07994V1.50095H65.0459V7H64.539L61.4208 2.15377H61.3901L61.4208 3.21364V7H60.9292V1.50095Z" fill="white"/>
<path d="M55.5627 16.3308C53.4089 16.3308 51.6492 18.0372 51.6492 20.3824C51.6492 22.7181 53.4089 24.4341 55.5627 24.4341C57.7164 24.4341 59.4761 22.7181 59.4761 20.3824C59.4761 18.0372 57.7164 16.3308 55.5627 16.3308ZM55.5627 22.842C54.3804 22.842 53.3631 21.8315 53.3631 20.3824C53.3631 18.9238 54.3804 17.9228 55.5627 17.9228C56.7449 17.9228 57.7622 18.9238 57.7622 20.3824C57.7622 21.8315 56.7358 22.842 55.5627 22.842ZM47.0209 16.3308C44.8671 16.3308 43.1075 18.0372 43.1075 20.3824C43.1075 22.7181 44.8671 24.4341 47.0209 24.4341C49.1747 24.4341 50.9343 22.7181 50.9343 20.3824C50.9343 18.0372 49.1747 16.3308 47.0209 16.3308ZM47.0209 22.842C45.8386 22.842 44.8213 21.8315 44.8213 20.3824C44.8213 18.9238 45.8386 17.9228 47.0209 17.9228C48.2032 17.9228 49.2205 18.9238 49.2205 20.3824C49.2205 21.8315 48.2032 22.842 47.0209 22.842ZM36.8661 17.5796V19.2956H40.8254C40.7062 20.2585 40.3946 20.9735 39.9272 21.4597C39.3498 22.0603 38.4517 22.7181 36.8753 22.7181C34.4374 22.7181 32.5311 20.678 32.5311 18.1421C32.5311 15.6062 34.4374 13.5661 36.8753 13.5661C38.1859 13.5661 39.1482 14.1 39.8539 14.7959L41.0178 13.5852C40.028 12.6032 38.7174 11.8501 36.8661 11.8501C33.5301 11.8501 30.7256 14.672 30.7256 18.1516C30.7256 21.6218 33.5301 24.4532 36.8661 24.4532C38.6716 24.4532 40.028 23.843 41.0912 22.6895C42.1818 21.555 42.5209 19.9534 42.5209 18.6664C42.5209 18.266 42.4934 17.8942 42.4293 17.5892H36.8661V17.5796ZM78.3926 18.9143C78.0718 18.0086 77.082 16.3308 75.0565 16.3308C73.0494 16.3308 71.3814 17.9705 71.3814 20.3824C71.3814 22.6514 73.0311 24.4341 75.249 24.4341C77.0362 24.4341 78.0718 23.2996 78.4934 22.6418L77.1645 21.7171C76.7246 22.394 76.1197 22.842 75.249 22.842C74.3783 22.842 73.7551 22.4321 73.361 21.6122L78.5759 19.3719L78.3926 18.9143ZM73.0769 20.268C73.0311 18.7046 74.2409 17.9038 75.1115 17.9038C75.7897 17.9038 76.3671 18.2565 76.5596 18.7618L73.0769 20.268ZM68.8427 24.1958H70.5565V12.2791H68.8427V24.1958ZM66.0382 17.2364H65.9741C65.5891 16.7598 64.8559 16.3308 63.9211 16.3308C61.969 16.3308 60.1818 18.1135 60.1818 20.4015C60.1818 22.6704 61.969 24.4436 63.9211 24.4436C64.8468 24.4436 65.5891 24.0146 65.9741 23.5189H66.029V24.1004C66.029 25.6544 65.2317 26.4838 63.9486 26.4838C62.9038 26.4838 62.2531 25.702 61.9873 25.0442L60.4934 25.6925C60.9242 26.7698 62.0606 28.0854 63.9486 28.0854C65.9557 28.0854 67.6512 26.8556 67.6512 23.8621V16.5786H66.029V17.2364H66.0382ZM64.0677 22.842C62.8855 22.842 61.8956 21.8124 61.8956 20.4015C61.8956 18.9715 62.8855 17.9324 64.0677 17.9324C65.2317 17.9324 66.1482 18.981 66.1482 20.4015C66.1574 21.8124 65.2409 22.842 64.0677 22.842ZM86.4211 12.2791H82.3244V24.1958H84.0382V19.677H86.4303C88.3274 19.677 90.1879 18.247 90.1879 15.978C90.1787 13.7091 88.3091 12.2791 86.4211 12.2791ZM86.4578 18.0182H84.029V13.9284H86.4578C87.7409 13.9284 88.4649 15.0342 88.4649 15.9685C88.4649 16.9028 87.7409 18.0182 86.4578 18.0182ZM97.0341 16.3117C95.7969 16.3117 94.5138 16.8837 93.9822 18.1326L95.5036 18.7904C95.8244 18.1326 96.4292 17.9133 97.0616 17.9133C97.9415 17.9133 98.8488 18.4662 98.858 19.4482V19.5721C98.5464 19.391 97.8865 19.1145 97.0708 19.1145C95.4303 19.1145 93.7714 20.0488 93.7714 21.7934C93.7714 23.3854 95.1095 24.415 96.6125 24.415C97.7582 24.415 98.3997 23.8812 98.7938 23.252H98.8488V24.1672H100.498V19.6007C100.508 17.4938 98.9863 16.3117 97.0341 16.3117ZM96.8233 22.842C96.2643 22.842 95.4853 22.5465 95.4853 21.8315C95.4853 20.9163 96.4567 20.5636 97.2999 20.5636C98.0515 20.5636 98.4089 20.7352 98.858 20.964C98.7297 22.0603 97.8132 22.842 96.8233 22.842ZM106.52 16.5691L104.559 21.7362H104.504L102.469 16.5691H100.627L103.679 23.7954L101.937 27.8089H103.725L108.426 16.5691H106.52ZM91.1227 24.1958H92.8366V12.2791H91.1227V24.1958Z" fill="white"/>
<path d="M11.3006 13.8293L0.103394 25.6308C0.103394 25.633 0.103394 25.6352 0.105592 25.6374C0.448497 26.9186 1.62668 27.8615 3.02688 27.8615C3.5852 27.8615 4.11054 27.7109 4.56116 27.4489L4.59633 27.4271L17.2025 20.2048L11.3006 13.8293Z" fill="#EA4335"/>
<path d="M22.6296 11.819L22.6186 11.8125L17.1761 8.68042L11.0455 14.0977L17.198 20.2069L22.612 17.1032C23.5616 16.5946 24.2056 15.6015 24.2056 14.4557C24.2056 13.3185 23.5704 12.3298 22.6296 11.819Z" fill="#FBBC04"/>
<path d="M0.103311 3.23071C0.0351692 3.47735 0 3.73708 0 4.00336V24.8584C0 25.1268 0.0351692 25.3844 0.103311 25.631L11.6873 14.1308L0.103311 3.23071Z" fill="#4285F4"/>
<path d="M11.3843 14.4319L17.1807 8.67849L4.58998 1.42998C4.13277 1.15715 3.59863 1 3.02712 1C1.62693 1 0.446543 1.94508 0.103638 3.22846V3.23065L11.3843 14.4319Z" fill="#33A852"/>
</svg>
