<svg width="101" height="26" viewBox="0 0 101 26" fill="none" xmlns="http://www.w3.org/2000/svg">
<path d="M15.8164 12.063C15.8276 11.1951 16.0581 10.344 16.4866 9.58912C16.915 8.83421 17.5275 8.19993 18.2669 7.74532C17.7972 7.07442 17.1775 6.5223 16.457 6.1328C15.7365 5.74331 14.9352 5.52717 14.1166 5.50156C12.3703 5.31826 10.6774 6.54648 9.78756 6.54648C8.88049 6.54648 7.51043 5.51976 6.03509 5.55011C5.0808 5.58094 4.15078 5.85844 3.33563 6.35557C2.52047 6.8527 1.848 7.55251 1.38372 8.38681C-0.627392 11.8688 0.872719 16.9862 2.79923 19.8008C3.76311 21.179 4.8896 22.7186 6.36361 22.664C7.80601 22.6041 8.34472 21.7442 10.0858 21.7442C11.8107 21.7442 12.3162 22.664 13.8201 22.6293C15.3678 22.6041 16.343 21.2449 17.2731 19.8536C17.9656 18.8716 18.4985 17.7862 18.8521 16.6377C17.9529 16.2574 17.1855 15.6208 16.6457 14.8073C16.1058 13.9938 15.8174 13.0394 15.8164 12.063Z" fill="white"/>
<path d="M12.9758 3.6504C13.8197 2.63732 14.2355 1.33518 14.1348 0.0205078C12.8455 0.155923 11.6546 0.772122 10.7992 1.74633C10.3811 2.22225 10.0608 2.77593 9.8567 3.37571C9.65263 3.97549 9.56877 4.60962 9.60991 5.24183C10.2548 5.24847 10.8928 5.10869 11.4758 4.83303C12.0588 4.55737 12.5717 4.153 12.9758 3.6504Z" fill="white"/>
<path d="M33.1215 19.3133H28.3881L27.2513 22.6697H25.2465L29.7299 10.2517H31.8129L36.2963 22.6697H34.2572L33.1215 19.3133ZM28.8783 17.7644H32.6303L30.7807 12.3172H30.7289L28.8783 17.7644Z" fill="white"/>
<path d="M45.9789 18.1433C45.9789 20.9568 44.473 22.7644 42.2006 22.7644C41.6249 22.7945 41.0524 22.6619 40.5486 22.3817C40.0448 22.1016 39.6301 21.6853 39.352 21.1804H39.309V25.6647H37.4506V13.6159H39.2494V15.1218H39.2836C39.5745 14.6193 39.9963 14.2051 40.5039 13.9233C41.0115 13.6414 41.5861 13.5025 42.1664 13.5212C44.4643 13.5212 45.9789 15.3376 45.9789 18.1433ZM44.0687 18.1433C44.0687 16.3103 43.1215 15.1052 41.6762 15.1052C40.2563 15.1052 39.3012 16.3357 39.3012 18.1433C39.3012 19.9675 40.2563 21.1892 41.6762 21.1892C43.1215 21.1892 44.0687 19.9929 44.0687 18.1433Z" fill="white"/>
<path d="M55.9442 18.1433C55.9442 20.9568 54.4379 22.7644 52.1654 22.7644C51.5898 22.7945 51.0173 22.6619 50.5135 22.3817C50.0097 22.1016 49.595 21.6853 49.3168 21.1804H49.2738V25.6647H47.4154V13.6159H49.2142V15.1218H49.2484C49.5394 14.6193 49.9611 14.2051 50.4687 13.9233C50.9764 13.6414 51.5509 13.5025 52.1312 13.5212C54.4291 13.5212 55.9442 15.3376 55.9442 18.1433ZM54.0336 18.1433C54.0336 16.3103 53.0863 15.1052 51.641 15.1052C50.2211 15.1052 49.266 16.3357 49.266 18.1433C49.266 19.9675 50.2211 21.1892 51.641 21.1892C53.0863 21.1892 54.0336 19.9929 54.0336 18.1433Z" fill="white"/>
<path d="M62.5292 19.2098C62.6669 20.4412 63.8632 21.2498 65.498 21.2498C67.0644 21.2498 68.1913 20.4412 68.1913 19.3308C68.1913 18.3669 67.5116 17.7898 65.9023 17.3943L64.2929 17.0066C62.0126 16.4558 60.954 15.3894 60.954 13.6589C60.954 11.5164 62.8212 10.0447 65.4716 10.0447C68.0966 10.0447 69.8954 11.5164 69.956 13.6589H68.08C67.9677 12.4197 66.9433 11.6716 65.4462 11.6716C63.9491 11.6716 62.9247 12.4285 62.9247 13.53C62.9247 14.408 63.579 14.9246 65.1796 15.32L66.5478 15.656C69.0956 16.2585 70.1532 17.282 70.1532 19.0984C70.1532 21.4216 68.3036 22.8767 65.3602 22.8767C62.6063 22.8767 60.747 21.4558 60.6268 19.2097L62.5292 19.2098Z" fill="white"/>
<path d="M74.1659 11.4734V13.616H75.8876V15.0876H74.1659V20.0789C74.1659 20.8542 74.5106 21.2156 75.2674 21.2156C75.4718 21.212 75.6759 21.1977 75.8788 21.1726V22.6355C75.5385 22.699 75.1927 22.7278 74.8465 22.7214C73.0136 22.7214 72.2987 22.0329 72.2987 20.2771V15.0876H70.9823V13.616H72.2987V11.4734H74.1659Z" fill="white"/>
<path d="M76.8837 18.1433C76.8837 15.2947 78.5614 13.5046 81.1776 13.5046C83.8026 13.5046 85.4725 15.2946 85.4725 18.1433C85.4725 20.9998 83.8114 22.782 81.1776 22.782C78.5448 22.782 76.8837 20.9997 76.8837 18.1433ZM83.579 18.1433C83.579 16.1892 82.6835 15.0359 81.1776 15.0359C79.6717 15.0359 78.7762 16.198 78.7762 18.1433C78.7762 20.1052 79.6717 21.2498 81.1776 21.2498C82.6835 21.2498 83.579 20.1052 83.579 18.1433Z" fill="white"/>
<path d="M87.0048 13.6161H88.7772V15.1571H88.8202C88.9402 14.6758 89.2221 14.2505 89.6187 13.9526C90.0153 13.6547 90.5023 13.5024 90.998 13.5213C91.2121 13.5206 91.4257 13.5439 91.6347 13.5907V15.329C91.3643 15.2464 91.0823 15.2084 90.7997 15.2167C90.5297 15.2057 90.2606 15.2533 90.0107 15.3562C89.7609 15.4591 89.5363 15.6148 89.3523 15.8127C89.1683 16.0106 89.0293 16.246 88.9449 16.5026C88.8605 16.7593 88.8326 17.0312 88.8632 17.2997V22.6698H87.0048L87.0048 13.6161Z" fill="white"/>
<path d="M100.203 20.0105C99.953 21.654 98.3524 22.782 96.3046 22.782C93.6708 22.782 92.036 21.0173 92.036 18.1863C92.036 15.3464 93.6796 13.5046 96.2264 13.5046C98.7313 13.5046 100.307 15.2253 100.307 17.9705V18.6072H93.912V18.7195C93.8825 19.0527 93.9242 19.3883 94.0344 19.7042C94.1445 20.02 94.3207 20.3088 94.551 20.5514C94.7814 20.7939 95.0607 20.9847 95.3704 21.111C95.6802 21.2373 96.0133 21.2962 96.3475 21.2839C96.7867 21.3251 97.2274 21.2234 97.6041 20.9939C97.9808 20.7645 98.2734 20.4196 98.4384 20.0105L100.203 20.0105ZM93.9208 17.3083H98.4471C98.4638 17.0088 98.4184 16.7089 98.3137 16.4277C98.209 16.1465 98.0474 15.89 97.8389 15.6742C97.6303 15.4585 97.3795 15.2881 97.102 15.1739C96.8245 15.0597 96.5264 15.0041 96.2264 15.0105C95.9238 15.0087 95.6238 15.0668 95.3438 15.1816C95.0637 15.2963 94.8092 15.4654 94.5948 15.679C94.3805 15.8927 94.2105 16.1466 94.0948 16.4263C93.9792 16.7059 93.92 17.0057 93.9208 17.3083Z" fill="white"/>
<path d="M28.6459 0.904476C29.0355 0.876517 29.4264 0.935377 29.7906 1.07681C30.1547 1.21824 30.4829 1.43872 30.7514 1.72235C31.02 2.00597 31.2223 2.34567 31.3437 2.71694C31.4651 3.08821 31.5026 3.4818 31.4535 3.86932C31.4535 5.77557 30.4232 6.87132 28.6459 6.87132H26.4906V0.904476H28.6459ZM27.4174 6.02748H28.5424C28.8208 6.04412 29.0994 5.99847 29.3579 5.89386C29.6164 5.78924 29.8484 5.62829 30.0369 5.42273C30.2254 5.21716 30.3657 4.97215 30.4475 4.70553C30.5294 4.43892 30.5508 4.1574 30.5101 3.88148C30.5478 3.60664 30.5243 3.32687 30.4412 3.06221C30.358 2.79754 30.2174 2.55454 30.0294 2.35061C29.8413 2.14668 29.6104 1.98687 29.3534 1.88263C29.0963 1.7784 28.8193 1.73231 28.5424 1.74769H27.4174V6.02748Z" fill="white"/>
<path d="M32.5004 4.61787C32.4721 4.32195 32.5059 4.02339 32.5998 3.74132C32.6936 3.45925 32.8454 3.19991 33.0453 2.97992C33.2453 2.75994 33.489 2.58418 33.7608 2.4639C34.0327 2.34362 34.3267 2.28149 34.6239 2.28149C34.9212 2.28149 35.2152 2.34362 35.487 2.4639C35.7589 2.58418 36.0026 2.75994 36.2025 2.97992C36.4025 3.19991 36.5543 3.45925 36.6481 3.74132C36.7419 4.02339 36.7758 4.32195 36.7475 4.61787C36.7763 4.91409 36.7429 5.21308 36.6493 5.4956C36.5557 5.77813 36.404 6.03794 36.204 6.25836C36.004 6.47877 35.7601 6.65491 35.488 6.77544C35.2159 6.89598 34.9216 6.95824 34.6239 6.95824C34.3263 6.95824 34.032 6.89598 33.7599 6.77544C33.4877 6.65491 33.2438 6.47877 33.0438 6.25836C32.8439 6.03794 32.6922 5.77813 32.5986 5.4956C32.505 5.21308 32.4716 4.91409 32.5004 4.61787ZM35.8334 4.61787C35.8334 3.6418 35.3949 3.071 34.6254 3.071C33.8529 3.071 33.4184 3.6418 33.4184 4.61788C33.4184 5.60177 33.853 6.16817 34.6254 6.16817C35.3949 6.16816 35.8334 5.59785 35.8334 4.61787Z" fill="white"/>
<path d="M42.3929 6.87134H41.4711L40.5404 3.55493H40.4701L39.5433 6.87134H38.6302L37.389 2.36841H38.2904L39.097 5.80441H39.1635L40.0892 2.36841H40.9418L41.8676 5.80441H41.9379L42.7406 2.36841H43.6293L42.3929 6.87134Z" fill="white"/>
<path d="M44.6732 2.36845H45.5287V3.08378H45.5951C45.7078 2.82686 45.8978 2.61149 46.1386 2.46768C46.3795 2.32388 46.6592 2.2588 46.9388 2.28153C47.1579 2.26506 47.3779 2.29809 47.5825 2.37819C47.7871 2.45829 47.9711 2.58339 48.1208 2.74423C48.2705 2.90508 48.382 3.09754 48.4472 3.30736C48.5124 3.51718 48.5296 3.73898 48.4974 3.95633V6.87133H47.6088V4.17949C47.6088 3.45586 47.2943 3.09599 46.6371 3.09599C46.4883 3.08906 46.3398 3.11438 46.2018 3.17021C46.0637 3.22604 45.9394 3.31106 45.8372 3.41945C45.7351 3.52783 45.6576 3.65702 45.6101 3.79815C45.5626 3.93928 45.5461 4.08902 45.5619 4.2371V6.87138H44.6732L44.6732 2.36845Z" fill="white"/>
<path d="M49.9135 0.610596H50.8021V6.87134H49.9135V0.610596Z" fill="white"/>
<path d="M52.0375 4.61796C52.0092 4.32202 52.0431 4.02343 52.1369 3.74135C52.2308 3.45927 52.3826 3.19992 52.5825 2.97994C52.7825 2.75995 53.0262 2.58418 53.2981 2.4639C53.57 2.34363 53.864 2.28149 54.1613 2.28149C54.4586 2.28149 54.7526 2.34363 55.0244 2.4639C55.2963 2.58418 55.54 2.75995 55.74 2.97994C55.94 3.19992 56.0917 3.45927 56.1856 3.74135C56.2795 4.02343 56.3133 4.32202 56.285 4.61796C56.3139 4.91419 56.2804 5.21318 56.1868 5.4957C56.0931 5.77822 55.9414 6.03804 55.7414 6.25844C55.5414 6.47885 55.2975 6.65498 55.0254 6.77551C54.7532 6.89604 54.4589 6.9583 54.1613 6.9583C53.8636 6.9583 53.5693 6.89604 53.2972 6.77551C53.025 6.65498 52.7811 6.47885 52.5811 6.25844C52.3811 6.03804 52.2294 5.77822 52.1358 5.4957C52.0422 5.21318 52.0087 4.91419 52.0375 4.61796ZM55.3705 4.61796C55.3705 3.64189 54.932 3.07109 54.1625 3.07109C53.39 3.07109 52.9555 3.64189 52.9555 4.61797C52.9555 5.60186 53.3901 6.16826 54.1625 6.16826C54.932 6.16825 55.3705 5.59794 55.3705 4.61796Z" fill="white"/>
<path d="M57.2206 5.59789C57.2206 4.78734 57.8241 4.32006 58.8954 4.25365L60.1151 4.18334V3.79467C60.1151 3.31908 59.8007 3.05053 59.1932 3.05053C58.6971 3.05053 58.3534 3.23266 58.2548 3.55102H57.3944C57.4852 2.77758 58.2128 2.28149 59.2343 2.28149C60.3632 2.28149 60.9999 2.84349 60.9999 3.79467V6.87133H60.1444V6.23852H60.0741C59.9314 6.46552 59.731 6.65057 59.4934 6.77478C59.2557 6.89899 58.9894 6.95791 58.7216 6.94552C58.5325 6.96519 58.3415 6.94502 58.1607 6.88632C57.9799 6.82762 57.8135 6.7317 57.6721 6.60473C57.5307 6.47776 57.4174 6.32256 57.3397 6.14915C57.2619 5.97573 57.2213 5.78795 57.2206 5.59789ZM60.1151 5.21312V4.83666L59.0155 4.90697C58.3954 4.94847 58.1141 5.15941 58.1141 5.55638C58.1141 5.96165 58.4657 6.19749 58.9491 6.19749C59.0908 6.21183 59.2339 6.19753 59.3699 6.15544C59.5059 6.11335 59.632 6.04433 59.7408 5.95249C59.8496 5.86065 59.9388 5.74786 60.0031 5.62084C60.0674 5.49382 60.1055 5.35517 60.1151 5.21312Z" fill="white"/>
<path d="M62.1678 4.61794C62.1678 3.19509 62.8993 2.29372 64.037 2.29372C64.3184 2.28075 64.5977 2.34815 64.8422 2.48805C65.0867 2.62794 65.2864 2.83455 65.4178 3.08372H65.4843V0.610596H66.3729V6.87134H65.5214V6.15991H65.4511C65.3095 6.4074 65.1028 6.61143 64.8536 6.74991C64.6043 6.8884 64.3219 6.95605 64.037 6.94555C62.8915 6.9456 62.1678 6.04421 62.1678 4.61794ZM63.0858 4.61794C63.0858 5.57302 63.536 6.14773 64.289 6.14773C65.038 6.14773 65.5009 5.56473 65.5009 4.62185C65.5009 3.68337 65.0331 3.09206 64.289 3.09206C63.5409 3.09206 63.0858 3.67067 63.0858 4.61794Z" fill="white"/>
<path d="M70.0497 4.61787C70.0214 4.32195 70.0553 4.02339 70.1491 3.74132C70.2429 3.45925 70.3947 3.19991 70.5946 2.97992C70.7946 2.75994 71.0383 2.58418 71.3101 2.4639C71.582 2.34362 71.876 2.28149 72.1733 2.28149C72.4705 2.28149 72.7645 2.34362 73.0364 2.4639C73.3082 2.58418 73.5519 2.75994 73.7519 2.97992C73.9518 3.19991 74.1036 3.45925 74.1974 3.74132C74.2912 4.02339 74.3251 4.32195 74.2968 4.61787C74.3256 4.91409 74.2922 5.21308 74.1986 5.4956C74.105 5.77813 73.9533 6.03794 73.7533 6.25836C73.5533 6.47877 73.3095 6.65491 73.0373 6.77544C72.7652 6.89598 72.4709 6.95824 72.1733 6.95824C71.8756 6.95824 71.5813 6.89598 71.3092 6.77544C71.037 6.65491 70.7932 6.47877 70.5932 6.25836C70.3932 6.03794 70.2415 5.77813 70.1479 5.4956C70.0543 5.21308 70.0209 4.91409 70.0497 4.61787ZM73.3827 4.61787C73.3827 3.6418 72.9442 3.071 72.1747 3.071C71.4023 3.071 70.9677 3.6418 70.9677 4.61788C70.9677 5.60177 71.4023 6.16817 72.1747 6.16817C72.9442 6.16816 73.3827 5.59785 73.3827 4.61787Z" fill="white"/>
<path d="M75.4891 2.36845H76.3446V3.08378H76.411C76.5237 2.82686 76.7137 2.61149 76.9545 2.46768C77.1954 2.32388 77.4752 2.2588 77.7548 2.28153C77.9739 2.26506 78.1939 2.29809 78.3985 2.37819C78.6031 2.45829 78.787 2.58339 78.9367 2.74423C79.0864 2.90508 79.198 3.09754 79.2632 3.30736C79.3284 3.51718 79.3455 3.73898 79.3134 3.95633V6.87133H78.4247V4.17949C78.4247 3.45586 78.1102 3.09599 77.453 3.09599C77.3043 3.08906 77.1557 3.11438 77.0177 3.17021C76.8796 3.22604 76.7553 3.31106 76.6532 3.41945C76.551 3.52783 76.4736 3.65702 76.426 3.79815C76.3785 3.93928 76.3621 4.08902 76.3778 4.2371V6.87138H75.4891V2.36845Z" fill="white"/>
<path d="M84.3348 1.24731V2.38891H85.3104V3.13745H84.3348V5.45288C84.3348 5.92456 84.5292 6.1311 84.9716 6.1311C85.0848 6.13074 85.198 6.12389 85.3104 6.11059V6.85082C85.1508 6.87938 84.9891 6.89456 84.827 6.89623C83.8387 6.89623 83.4452 6.54857 83.4452 5.68041V3.13741H82.7303V2.38887H83.4452V1.24731H84.3348Z" fill="white"/>
<path d="M86.5243 0.610596H87.4052V3.09205H87.4755C87.5936 2.83273 87.7888 2.61613 88.0345 2.47179C88.2802 2.32744 88.5644 2.26236 88.8485 2.28541C89.0664 2.27355 89.2843 2.30993 89.4866 2.39198C89.6889 2.47402 89.8706 2.59969 90.0187 2.76003C90.1668 2.92037 90.2777 3.11142 90.3435 3.31955C90.4093 3.52769 90.4283 3.74778 90.3992 3.96412V6.87135H89.5097V4.18335C89.5097 3.46411 89.1747 3.09985 88.5468 3.09985C88.3941 3.08732 88.2404 3.10832 88.0966 3.16137C87.9529 3.21442 87.8224 3.29825 87.7144 3.40699C87.6064 3.51573 87.5235 3.64675 87.4714 3.79088C87.4194 3.93502 87.3994 4.0888 87.413 4.24145V6.87133H86.5243L86.5243 0.610596Z" fill="white"/>
<path d="M95.581 5.65559C95.4602 6.06713 95.1986 6.42311 94.8419 6.66126C94.4853 6.89941 94.0562 7.00456 93.6298 6.95832C93.3331 6.96615 93.0383 6.90933 92.7658 6.7918C92.4933 6.67427 92.2497 6.49885 92.0517 6.27771C91.8538 6.05658 91.7064 5.79502 91.6197 5.5112C91.533 5.22738 91.5092 4.92809 91.5497 4.63411C91.5102 4.33922 91.5345 4.03929 91.621 3.75462C91.7075 3.46995 91.8541 3.20718 92.051 2.98411C92.2479 2.76103 92.4904 2.58286 92.7621 2.46165C93.0338 2.34045 93.3284 2.27903 93.6259 2.28157C94.8788 2.28157 95.6347 3.13757 95.6347 4.55157V4.86166H92.455V4.91146C92.4411 5.0767 92.4618 5.24304 92.516 5.39979C92.5701 5.55654 92.6564 5.70024 92.7693 5.8217C92.8822 5.94316 93.0192 6.03968 93.1716 6.10507C93.324 6.17047 93.4884 6.2033 93.6542 6.20146C93.8668 6.22698 94.0821 6.1887 94.2729 6.09149C94.4637 5.99429 94.6212 5.84254 94.7255 5.65556L95.581 5.65559ZM92.455 4.20442H94.7294C94.7406 4.05329 94.72 3.90149 94.6691 3.75877C94.6181 3.61606 94.5379 3.48558 94.4335 3.37572C94.3291 3.26586 94.2029 3.17906 94.063 3.12088C93.923 3.0627 93.7725 3.03445 93.621 3.03792C93.4673 3.03599 93.3147 3.06485 93.1724 3.12279C93.03 3.18074 92.9007 3.26659 92.792 3.37531C92.6833 3.48402 92.5975 3.61339 92.5397 3.75578C92.4818 3.89818 92.453 4.05072 92.455 4.20442Z" fill="white"/>
</svg>
